<svg xmlns="http://www.w3.org/2000/svg" viewBox="0 0 640 480" role="img" aria-labelledby="title desc">
  <title id="title">Ataxx 棋盘示意图</title>
  <desc id="desc">带有扩张与跳跃概念的 Ataxx 风格棋盘示意图。</desc>
  <defs>
    <linearGradient id="bg" x1="0" x2="1" y1="0" y2="1">
      <stop offset="0%" stop-color="#13233d"/>
      <stop offset="100%" stop-color="#0a1220"/>
    </linearGradient>
  </defs>
  <rect width="640" height="480" rx="36" fill="url(#bg)"/>
  <g transform="translate(150 70)">
    <rect x="0" y="0" width="340" height="340" rx="24" fill="#0f1f33" stroke="#6ea0d1" stroke-width="3"/>
    <g stroke="#35567e" stroke-width="2">
      <line x1="48.5" y1="0" x2="48.5" y2="340"/>
      <line x1="97" y1="0" x2="97" y2="340"/>
      <line x1="145.5" y1="0" x2="145.5" y2="340"/>
      <line x1="194" y1="0" x2="194" y2="340"/>
      <line x1="242.5" y1="0" x2="242.5" y2="340"/>
      <line x1="291" y1="0" x2="291" y2="340"/>
      <line x1="0" y1="48.5" x2="340" y2="48.5"/>
      <line x1="0" y1="97" x2="340" y2="97"/>
      <line x1="0" y1="145.5" x2="340" y2="145.5"/>
      <line x1="0" y1="194" x2="340" y2="194"/>
      <line x1="0" y1="242.5" x2="340" y2="242.5"/>
      <line x1="0" y1="291" x2="340" y2="291"/>
    </g>
    <g fill="#0a1422" stroke="#7ad8ff" stroke-width="3">
      <rect x="139" y="139" width="62" height="62" rx="12"/>
    </g>
    <g fill="#81f2a5">
      <circle cx="24" cy="24" r="16"/>
      <circle cx="316" cy="316" r="16"/>
      <circle cx="72.5" cy="72.5" r="16"/>
      <circle cx="121" cy="72.5" r="16"/>
    </g>
    <g fill="#7ad8ff">
      <circle cx="316" cy="24" r="16"/>
      <circle cx="24" cy="316" r="16"/>
      <circle cx="267.5" cy="267.5" r="16"/>
      <circle cx="219" cy="267.5" r="16"/>
    </g>
    <path d="M93 82 C126 98, 150 120, 174 170" fill="none" stroke="#81f2a5" stroke-width="10" stroke-linecap="round" opacity="0.65"/>
    <path d="M248 258 C221 242, 198 221, 174 170" fill="none" stroke="#7ad8ff" stroke-width="10" stroke-linecap="round" opacity="0.65"/>
  </g>
</svg>
