<svg xmlns="http://www.w3.org/2000/svg" viewBox="0 0 640 480" role="img" aria-labelledby="title desc">
  <title id="title">五子棋棋盘示意图</title>
  <desc id="desc">展示黑白棋子形成进攻线条的五子棋示意图。</desc>
  <defs>
    <linearGradient id="bg" x1="0" x2="1" y1="0" y2="1">
      <stop offset="0%" stop-color="#13253f"/>
      <stop offset="100%" stop-color="#09111d"/>
    </linearGradient>
    <linearGradient id="board" x1="0" x2="1" y1="0" y2="1">
      <stop offset="0%" stop-color="#f2d8a1"/>
      <stop offset="100%" stop-color="#d6a457"/>
    </linearGradient>
  </defs>
  <rect width="640" height="480" rx="36" fill="url(#bg)"/>
  <rect x="118" y="38" width="404" height="404" rx="20" fill="url(#board)" stroke="#f4e2bc" stroke-width="3"/>
  <g stroke="#65451d" stroke-width="2.5" opacity="0.75">
    <g>
      <line x1="146" y1="66" x2="146" y2="414"/>
      <line x1="178" y1="66" x2="178" y2="414"/>
      <line x1="210" y1="66" x2="210" y2="414"/>
      <line x1="242" y1="66" x2="242" y2="414"/>
      <line x1="274" y1="66" x2="274" y2="414"/>
      <line x1="306" y1="66" x2="306" y2="414"/>
      <line x1="338" y1="66" x2="338" y2="414"/>
      <line x1="370" y1="66" x2="370" y2="414"/>
      <line x1="402" y1="66" x2="402" y2="414"/>
      <line x1="434" y1="66" x2="434" y2="414"/>
      <line x1="466" y1="66" x2="466" y2="414"/>
      <line x1="498" y1="66" x2="498" y2="414"/>
    </g>
    <g>
      <line x1="146" y1="66" x2="494" y2="66"/>
      <line x1="146" y1="98" x2="494" y2="98"/>
      <line x1="146" y1="130" x2="494" y2="130"/>
      <line x1="146" y1="162" x2="494" y2="162"/>
      <line x1="146" y1="194" x2="494" y2="194"/>
      <line x1="146" y1="226" x2="494" y2="226"/>
      <line x1="146" y1="258" x2="494" y2="258"/>
      <line x1="146" y1="290" x2="494" y2="290"/>
      <line x1="146" y1="322" x2="494" y2="322"/>
      <line x1="146" y1="354" x2="494" y2="354"/>
      <line x1="146" y1="386" x2="494" y2="386"/>
      <line x1="146" y1="418" x2="494" y2="418"/>
    </g>
  </g>
  <g fill="#141920">
    <circle cx="242" cy="194" r="16"/>
    <circle cx="274" cy="226" r="16"/>
    <circle cx="306" cy="258" r="16"/>
    <circle cx="338" cy="290" r="16"/>
    <circle cx="370" cy="322" r="16"/>
  </g>
  <g fill="#f8fbff">
    <circle cx="210" cy="226" r="16"/>
    <circle cx="242" cy="258" r="16"/>
    <circle cx="274" cy="290" r="16"/>
    <circle cx="402" cy="162" r="16"/>
  </g>
  <path d="M226 178 L386 338" stroke="#7ad8ff" stroke-width="10" stroke-linecap="round" opacity="0.75"/>
</svg>
